<?xml version="1.0" encoding="UTF-8"?>
<svg width="121px" height="46px" viewBox="0 0 121 46" version="1.1" xmlns="http://www.w3.org/2000/svg" xmlns:xlink="http://www.w3.org/1999/xlink">
    <!-- Generator: Sketch 50.2 (55047) - http://www.bohemiancoding.com/sketch -->
    <title>Group 5</title>
    <desc>Created with Sketch.</desc>
    <defs></defs>
    <g id="Designs" stroke="none" stroke-width="1" fill="none" fill-rule="evenodd">
        <g id="Email---Password-reset" transform="translate(-52.000000, -52.000000)">
            <g id="Group-5" transform="translate(52.000000, 52.000000)">
                <path d="M12.601841,22.7584345 L13.9385949,22.7584345 L13.9385949,19.2253711 C13.9385949,16.3193737 13.7772641,14.3693257 13.4545978,13.3751687 C13.1319314,12.3810117 12.5096557,11.8839406 11.5877519,11.8839406 C11.0346096,11.8839406 10.5352525,12.0292383 10.0896656,12.3198381 C9.64407879,12.6104378 9.42128871,13.0080946 9.42128871,13.5128205 C9.42128871,14.0175464 9.51347771,14.5299119 9.69785847,15.0499325 L10.8502325,15.0499325 C11.0960735,15.6923109 11.2189922,16.4646828 11.2189922,17.3670715 C11.2189922,18.2694602 10.8348713,19.0494794 10.0666182,19.7071525 C9.29836497,20.3648256 8.33038047,20.6936572 7.16263562,20.6936572 C4.51984465,20.6936572 3.19846898,19.4242142 3.19846898,16.8852901 C3.19846898,13.1227882 6.40971915,11.2415655 12.8323158,11.2415655 C16.489201,11.2415655 19.0167161,11.8609925 20.4149369,13.099865 C21.8131577,14.3387376 22.5122576,16.60997 22.5122576,19.9136302 L22.5122576,29.2280702 C22.5122576,30.8187214 22.9578378,31.6140351 23.8490115,31.6140351 C24.8938358,31.6140351 25.5084291,30.0387022 25.6928099,26.8879892 L26.3842343,26.9338731 C26.2613138,29.6257445 25.7542743,31.4763782 24.8631006,32.48583 C23.9719269,33.4952817 22.5122677,34 20.4840793,34 C16.796464,34 14.676117,32.8682074 14.1229747,30.6045884 C13.7234831,31.7669874 13.1242546,32.623479 12.3252712,33.1740891 C11.5262879,33.7246991 10.3585606,34 8.82205421,34 C4.27399533,34 2,32.1493662 2,28.4480432 C2,26.2761925 2.86811308,24.7849793 4.60436529,23.974359 C6.3406175,23.1637386 9.00641608,22.7584345 12.601841,22.7584345 Z M10.7580426,28.4021592 C10.7580426,29.9928105 10.8425492,31.0175416 11.0115649,31.4763833 C11.1805806,31.935225 11.5032421,32.1646424 11.979559,32.1646424 C12.455876,32.1646424 12.9014562,31.7746328 13.3163129,30.9946019 C13.7311696,30.214571 13.9385949,29.1363092 13.9385949,27.7597841 L13.9385949,23.4925776 L13.6159301,23.4925776 C11.7106622,23.4925776 10.7580426,24.8843765 10.7580426,27.6680162 L10.7580426,28.4021592 Z M41.0566666,12.0674764 C39.7045409,12.0674764 38.7365564,12.8016121 38.152684,14.2699055 C37.5688116,15.738199 37.2768798,18.1700235 37.2768798,21.5654521 L37.2768798,23.951417 C37.2768798,26.9797722 37.6149061,29.1515904 38.2909689,30.4669366 C38.9670317,31.7822828 40.2115832,32.439946 42.0246607,32.439946 C43.8377383,32.439946 45.2820326,31.8281663 46.3575871,30.6045884 C47.4331415,29.3810105 48.124559,27.9892116 48.4318603,26.4291498 L49.2615696,26.5209177 C48.6776972,29.1516101 47.6021588,31.0481273 46.0349223,32.2105263 C44.4369557,33.4035147 42.2397845,34 39.4433429,34 C35.8786481,34 33.1437078,33.0440941 31.2384399,31.1322537 C29.333172,29.2204133 28.3805523,26.4215209 28.3805523,22.7354926 C28.3805523,19.0494643 29.4637731,16.2123356 31.630247,14.2240216 C33.796721,12.2357076 36.8159108,11.2415655 40.6879069,11.2415655 C43.4228882,11.2415655 45.5125055,11.7692255 46.9568215,12.8245614 C48.4011375,13.8798973 49.1232847,15.202871 49.1232847,16.7935223 C49.1232847,18.3841735 48.777576,19.546555 48.0861481,20.2807018 C47.3947202,21.0148485 46.4421006,21.3819163 45.2282605,21.3819163 C44.0144205,21.3819163 43.0387536,21.060732 42.3012305,20.4183536 C41.5637074,19.7759752 41.1949514,18.8277166 41.1949514,17.5735493 C41.1949514,17.0229392 41.2717756,16.4723374 41.4254262,15.9217274 L42.9465599,15.9217274 C43.1616708,15.3099385 43.2692247,14.7593367 43.2692247,14.2699055 C43.2692247,12.8016121 42.5317127,12.0674764 41.0566666,12.0674764 Z M54.0235852,26.9797571 L54.0235852,12.5263158 L51.4883624,12.5263158 L51.4883624,11.7004049 L54.0235852,11.7004049 L54.0235852,5.78137652 L62.597248,3.67071525 L62.597248,11.7004049 L68.5895929,11.7004049 L68.5895929,12.5263158 L62.597248,12.5263158 L62.597248,27.9892038 C62.597248,29.4269078 62.7432139,30.4822279 63.0351501,31.1551957 C63.3270863,31.8281635 63.9339972,32.1646424 64.855901,32.1646424 C65.7778049,32.1646424 66.5844586,31.7058076 67.2758865,30.7881242 C67.9673144,29.8704408 68.4205769,28.6162923 68.6356878,27.025641 L69.4193022,27.1174089 C69.1734612,29.2280807 68.4974085,30.9028278 67.3911239,32.1417004 C66.2848393,33.380573 64.4564241,34 61.9058235,34 C59.355223,34 57.4038891,33.4952817 56.0517635,32.48583 C54.6996379,31.4763782 54.0235852,29.6410389 54.0235852,26.9797571 Z M77.9611046,8.53441296 C76.3324078,8.53441296 75.1723629,8.12146162 74.4809351,7.29554656 C73.7895072,6.4696315 73.4437984,5.4449004 73.4437984,4.22132254 C73.4437984,2.99774467 73.8202369,1.98830807 74.573125,1.19298246 C75.3260131,0.397656842 76.4706932,0 78.0071996,0 C79.5437059,0 80.7114333,0.359420607 81.5104166,1.0782726 C82.3093999,1.7971246 82.7088856,2.8218557 82.7088856,4.15249663 C82.7088856,5.48313756 82.3247647,6.54610489 81.5565116,7.3414305 C80.7882584,8.13675611 79.5898014,8.53441296 77.9611046,8.53441296 Z M71.0007655,11.7004049 L82.2940309,11.7004049 L82.2940309,32.7152497 L84.8753487,32.7152497 L84.8753487,33.5411606 L71.1851454,33.5411606 L71.1851454,32.7152497 L73.7203682,32.7152497 L73.7203682,12.5263158 L71.0007655,12.5263158 L71.0007655,11.7004049 Z M85.2583431,12.5263158 L85.2583431,11.7004049 L99.0407364,11.7004049 L99.0407364,12.5263158 L96.1367539,12.5263158 L101.668149,27.7597841 L106.646405,12.5263158 L103.558043,12.5263158 L103.558043,11.7004049 L109.780862,11.7004049 L109.780862,12.5263158 L107.752684,12.5263158 L100.93063,33.5411606 L95.6758043,33.5411606 L87.1482365,12.5263158 L85.2583431,12.5263158 Z M113.897548,34 C112.576153,34 111.585121,33.6099904 110.924424,32.8299595 C110.263726,32.0499286 109.933382,31.10167 109.933382,29.9851552 C109.933382,28.8686404 110.279091,27.928029 110.970518,27.1632928 C111.661946,26.3985567 112.637613,26.0161943 113.897548,26.0161943 C115.157484,26.0161943 116.156198,26.3373787 116.893721,26.9797571 C117.631244,27.6221355 118,28.5856886 118,29.8704453 C118,31.1552021 117.654291,32.1646387 116.962863,32.8987854 C116.271436,33.6329321 115.249674,34 113.897548,34 Z" id="activ." fill="#212121"></path>
                <rect id="Rectangle-7" fill="#212121" x="0" y="42" width="121" height="4"></rect>
                <circle id="Oval" fill="#C94443" cx="114" cy="30" r="5"></circle>
            </g>
        </g>
    </g>
</svg>