<?xml version="1.0" encoding="UTF-8" standalone="no"?>
<svg width="20px" height="16px" viewBox="0 0 20 16" version="1.1" xmlns="http://www.w3.org/2000/svg" xmlns:xlink="http://www.w3.org/1999/xlink">
    <!-- Generator: Sketch 50.2 (55047) - http://www.bohemiancoding.com/sketch -->
    <title>Chromecast_cast_button_icon</title>
    <desc>Created with Sketch.</desc>
    <defs></defs>
    <g id="Page-1" stroke="none" stroke-width="1" fill="none" fill-rule="evenodd">
        <g id="Video-player-states" transform="translate(-654.000000, -1403.000000)">
            <g id="Group-7" transform="translate(75.000000, 1049.000000)">
                <g id="Chromecast_cast_button_icon" transform="translate(579.000000, 352.000000)">
                    <path d="M0.833333333,15 L0.833333333,17.5 L3.33333333,17.5 C3.33333333,16.1166667 2.21666667,15 0.833333333,15 Z M0.833333333,11.6666667 L0.833333333,13.3333333 C3.13333333,13.3333333 5,15.2 5,17.5 L6.66666667,17.5 C6.66666667,14.275 4.05833333,11.6666667 0.833333333,11.6666667 Z M0.833333333,8.33333333 L0.833333333,10 C4.975,10 8.33333333,13.3583333 8.33333333,17.5 L10,17.5 C10,12.4333333 5.89166667,8.33333333 0.833333333,8.33333333 Z M17.5,2.5 L2.5,2.5 C1.58333333,2.5 0.833333333,3.25 0.833333333,4.16666667 L0.833333333,6.66666667 L2.5,6.66666667 L2.5,4.16666667 L17.5,4.16666667 L17.5,15.8333333 L11.6666667,15.8333333 L11.6666667,17.5 L17.5,17.5 C18.4166667,17.5 19.1666667,16.75 19.1666667,15.8333333 L19.1666667,4.16666667 C19.1666667,3.25 18.4166667,2.5 17.5,2.5 Z" id="cast" fill="#000000" fill-rule="nonzero"></path>
                    <rect id="bounds" x="0" y="0" width="20" height="20"></rect>
                </g>
            </g>
        </g>
    </g>
</svg>