<?xml version="1.0" encoding="UTF-8" standalone="no"?>
<svg width="14px" height="14px" viewBox="0 0 14 14" version="1.1" xmlns="http://www.w3.org/2000/svg" xmlns:xlink="http://www.w3.org/1999/xlink">
    <!-- Generator: Sketch 50.2 (55047) - http://www.bohemiancoding.com/sketch -->
    <defs></defs>
    <g id="Symbols" stroke="none" stroke-width="1" fill="none" fill-rule="evenodd">
        <g id="design-vid-thumb" transform="translate(-236.000000, -180.000000)" fill="#F7F6F3">
            <g id="vid-thumb">
                <g id="Group-8" transform="translate(234.000000, 178.000000)">
                    <g id="Fill-114" transform="translate(2.000000, 2.000000)">
                        <path d="M10.4235833,10.4055 C10.3133333,10.5256667 10.1278333,10.5309167 10.0111667,10.4235833 L6.51116667,7.21525 C6.45108333,7.15983333 6.41666667,7.08225 6.41666667,7 L6.41666667,3.79166667 C6.41666667,3.63066667 6.54733333,3.5 6.70833333,3.5 C6.86933333,3.5 7,3.63066667 7,3.79166667 L7,6.87166667 L10.4055,9.99308333 C10.5245,10.1021667 10.5320833,10.2870833 10.4235833,10.4055 M7,0 C3.14066667,0 0,3.14008333 0,7 C0,10.8599167 3.14066667,14 7,14 C10.8599167,14 14,10.8599167 14,7 C14,3.14008333 10.8599167,0 7,0"></path>
                    </g>
                </g>
            </g>
        </g>
    </g>
</svg>