<?xml version="1.0" encoding="UTF-8" standalone="no"?>
<svg width="25px" height="18px" viewBox="0 0 25 18" version="1.1" xmlns="http://www.w3.org/2000/svg" xmlns:xlink="http://www.w3.org/1999/xlink">

    <defs></defs>
    <g id="Page-1" stroke="none" stroke-width="1" fill="none" fill-rule="evenodd" stroke-linecap="round" stroke-linejoin="round">
        <g id="User-home-mobile-menu" transform="translate(-24.000000, -249.000000)" stroke="#000000">
            <g id="Group" transform="translate(24.000000, 249.000000)">
                <path d="M15.5127,2.5 C15.5127,3.604 12.1557,4.5 8.0127,4.5 C3.8707,4.5 0.5127,3.604 0.5127,2.5" id="Stroke-4618"></path>
                <path d="M23.5127,9.5 C23.5127,10.604 20.1557,11.5 16.0127,11.5 C11.8707,11.5 8.5127,10.604 8.5127,9.5 C8.5127,8.396 11.8707,7.5 16.0127,7.5 C20.1557,7.5 23.5127,8.396 23.5127,9.5 L23.5127,9.5 Z" id="Stroke-4619"></path>
                <path d="M15.5127,2.5 C15.5127,3.604 12.1557,4.5 8.0127,4.5 C3.8707,4.5 0.5127,3.604 0.5127,2.5 C0.5127,1.396 3.8707,0.5 8.0127,0.5 C12.1557,0.5 15.5127,1.396 15.5127,2.5 L15.5127,2.5 Z" id="Stroke-4619"></path>
                <path d="M23.5127,9.5 L23.5127,12.5 C23.5127,13.604 20.1557,14.5 16.0127,14.5 C11.8707,14.5 8.5127,13.604 8.5127,12.5 L8.5127,9.5" id="Stroke-4620"></path>
                <path d="M23.5127,12.5 L23.5127,15.5 C23.5127,16.604 20.1557,17.5 16.0127,17.5 C11.8707,17.5 8.5127,16.604 8.5127,15.5 L8.5127,12.5" id="Stroke-4621"></path>
                <path d="M15.5127,2.5 L15.5127,5.5 C15.5127,6.604 12.1557,7.5 8.0127,7.5 C3.8707,7.5 0.5127,6.604 0.5127,5.5 L0.5127,2.5" id="Stroke-4622"></path>
                <path d="M0.5127,5.5 L0.5127,8.5 C0.5127,9.604 3.8707,10.5 8.0127,10.5 L8.5127,10.5" id="Stroke-4623"></path>
                <path d="M0.5127,8.5 L0.5127,11.5 C0.5127,12.604 3.8707,13.5 8.0127,13.5 L8.5127,13.5" id="Stroke-4624"></path>
                <path d="M15.5127,5.5 L15.5127,7.5" id="Stroke-4625"></path>
            </g>
        </g>
    </g>
</svg>