<?xml version="1.0" encoding="UTF-8" standalone="no"?>
<svg width="31px" height="30px" viewBox="0 0 31 30" version="1.1" xmlns="http://www.w3.org/2000/svg" xmlns:xlink="http://www.w3.org/1999/xlink">
    <defs></defs>
    <g id="Symbols" stroke="none" stroke-width="1" fill="none" fill-rule="evenodd" stroke-linecap="round" stroke-linejoin="round">
        <g id="design-header-member" transform="translate(-1320.000000, -29.000000)" fill="#FFFFFF" stroke="#000000">
            <g id="header-member">
                <g id="Group-4" transform="translate(1320.000000, 29.000000)">
                    <g id="Stroke-3479-+-Stroke-3480">
                        <path d="M26.7391304,14.3478261 C26.7391304,9.58695652 23.7273913,5.53565217 19.5130435,3.96652174 C19.2234783,2.09086957 17.6086957,0.652173913 15.6521739,0.652173913 C13.6956522,0.652173913 12.0756522,2.09086957 11.7873913,3.96652174 C7.57173913,5.53565217 4.56521739,9.58695652 4.56521739,14.3478261 L4.56521739,21.5217391 C4.56521739,23.6830435 2.81217391,25.4347826 0.652173913,25.4347826 L30.6521739,25.4347826 C28.4882609,25.4347826 26.7391304,23.6830435 26.7391304,21.5217391 L26.7391304,14.3478261 Z" id="Stroke-3479"></path>
                        <path d="M19.5652174,25.4347826 C19.5652174,27.596087 17.8121739,29.3478261 15.6521739,29.3478261 C13.4882609,29.3478261 11.7391304,27.596087 11.7391304,25.4347826 L19.5652174,25.4347826 Z" id="Stroke-3480"></path>
                    </g>
                </g>
            </g>
        </g>
    </g>
</svg>