<?xml version="1.0" encoding="UTF-8" standalone="no"?>
<svg width="19px" height="18px" viewBox="0 0 19 18" version="1.1" xmlns="http://www.w3.org/2000/svg" xmlns:xlink="http://www.w3.org/1999/xlink">
    <defs></defs>
    <g id="Page-1" stroke="none" stroke-width="1" fill="none" fill-rule="evenodd" stroke-linejoin="round">
        <g id="Create-account-Member---Step-3-(V2)" transform="translate(-1175.000000, -229.000000)" stroke="#000000">
            <g id="Group-5" transform="translate(586.000000, 142.000000)">
                <g id="Group-4" transform="translate(4.000000, 87.000000)">
                    <g id="Stroke-3068-+-Stroke-3069-+-Stroke-3070" transform="translate(586.000000, 1.000000)">
                        <path d="M16.6304348,8 C16.6304348,12.226087 12.9902174,15.6521739 8.5,15.6521739 C4.00978261,15.6521739 0.369565217,12.226087 0.369565217,8 C0.369565217,3.77391304 4.00978261,0.347826087 8.5,0.347826087 C12.9902174,0.347826087 16.6304348,3.77391304 16.6304348,8 L16.6304348,8 Z" id="Stroke-3068" stroke-linecap="round"></path>
                        <path d="M6.2826087,6.26086957 C6.2826087,5.10886957 7.27526087,4.17391304 8.5,4.17391304 C9.724,4.17391304 10.7173913,5.10886957 10.7173913,6.26086957 C10.7173913,7.41426087 9.724,8.34782609 8.5,8.34782609 L8.5,10.4347826" id="Stroke-3069" stroke-linecap="round"></path>
                        <path d="M8.86956522,12.173913 C8.86956522,12.365913 8.704,12.5217391 8.5,12.5217391 C8.296,12.5217391 8.13043478,12.365913 8.13043478,12.173913 C8.13043478,11.981913 8.296,11.826087 8.5,11.826087 C8.704,11.826087 8.86956522,11.981913 8.86956522,12.173913 L8.86956522,12.173913 Z" id="Stroke-3070"></path>
                    </g>
                </g>
            </g>
        </g>
    </g>
</svg>