<?xml version="1.0" encoding="UTF-8" standalone="no"?>
<svg width="100px" height="35px" viewBox="0 0 100 35" version="1.1" xmlns="http://www.w3.org/2000/svg" xmlns:xlink="http://www.w3.org/1999/xlink">
    <!-- Generator: Sketch 50.2 (55047) - http://www.bohemiancoding.com/sketch -->
    <title>Sprint Logo</title>
    <desc>Created with Sketch.</desc>
    <defs>
        <polygon id="path-1" points="0 0.09171875 12.7258854 0.09171875 12.7258854 18.9333854 0 18.9333854"></polygon>
        <polygon id="path-3" points="0.27859375 0.0917708333 18.4061979 0.0917708333 18.4061979 28.125 0.27859375 28.125"></polygon>
        <polygon id="path-5" points="0.04328125 0.298958333 9.12505208 0.298958333 9.12505208 24.6702604 0.04328125 24.6702604"></polygon>
    </defs>
    <g id="Components" stroke="none" stroke-width="1" fill="none" fill-rule="evenodd">
        <g id="Footer" transform="translate(-1190.000000, -26.000000)">
            <g id="Sprint-Logo" transform="translate(1190.000000, 26.000000)">
                <g id="Group-3" transform="translate(0.000000, 6.471771)">
                    <mask id="mask-2" fill="white">
                        <use xlink:href="#path-1"></use>
                    </mask>
                    <g id="Clip-2"></g>
                    <path d="M11.5722396,3.62557292 L8.16651042,5.43807292 C7.62901042,4.33963542 6.96390625,3.79015625 6.17067708,3.79015625 C5.79203125,3.79015625 5.46859375,3.91567708 5.20036458,4.16567708 C4.93161458,4.41619792 4.79723958,4.73651042 4.79723958,5.12713542 C4.79723958,5.81046875 5.59098958,6.48807292 7.17744792,7.15942708 C9.36286458,8.09953125 10.8336979,8.96619792 11.5904687,9.75942708 C12.3472396,10.5531771 12.7258854,11.6214062 12.7258854,12.9641146 C12.7258854,14.6849479 12.0909896,16.1255729 10.8217187,17.2854687 C9.58838542,18.3839062 8.09932292,18.9333854 6.35348958,18.9333854 C3.36286458,18.9333854 1.24515625,17.4745312 -0.00015625,14.5568229 L3.51546875,12.9271354 C4.00348958,13.7818229 4.37640625,14.3250521 4.63265625,14.5568229 C5.13317708,15.0208854 5.73109375,15.2526562 6.42692708,15.2526562 C7.81859375,15.2526562 8.51442708,14.6177604 8.51442708,13.3484896 C8.51442708,12.6161979 7.97692708,11.9323437 6.90296875,11.2974479 C6.48786458,11.0901562 6.07276042,10.8885937 5.65817708,10.6932812 C5.24307292,10.4979687 4.82171875,10.2969271 4.39463542,10.0891146 C3.19776042,9.50317708 2.35557292,8.91723958 1.86755208,8.33130208 C1.24515625,7.58651042 0.933697917,6.62869792 0.933697917,5.45682292 C0.933697917,3.90630208 1.46494792,2.62453125 2.52692708,1.61151042 C3.61338542,0.598489583 4.93161458,0.09171875 6.48213542,0.09171875 C8.76442708,0.09171875 10.4613021,1.26984375 11.5722396,3.62557292" id="Fill-1" fill="#30B34A" mask="url(#mask-2)"></path>
                </g>
                <g id="Group-6" transform="translate(17.187500, 6.471771)">
                    <mask id="mask-4" fill="white">
                        <use xlink:href="#path-3"></use>
                    </mask>
                    <g id="Clip-5"></g>
                    <path d="M14.1947396,9.613125 C14.1947396,7.90427083 13.7306771,6.51260417 12.8030729,5.438125 C11.8629687,4.35166667 10.6791146,3.8084375 9.25098958,3.8084375 C7.73744792,3.8084375 6.51036458,4.3334375 5.57026042,5.3834375 C4.63015625,6.4334375 4.16036458,7.81260417 4.16036458,9.52145833 C4.16036458,11.1938542 4.63015625,12.5735417 5.57026042,13.66 C6.49786458,14.7219792 7.71869792,15.2527083 9.23276042,15.2527083 C10.6608854,15.2527083 11.8390104,14.7157292 12.7666146,13.64125 C13.7186979,12.5672917 14.1947396,11.2245833 14.1947396,9.613125 Z M4.39838542,28.1251042 L0.27859375,28.1251042 L0.27859375,0.586041667 L4.39838542,0.586041667 L4.39838542,2.5271875 C6.02182292,0.903229167 7.86557292,0.0917708333 9.92859375,0.0917708333 C12.3822396,0.0917708333 14.4020312,0.994895833 15.9890104,2.80166667 C17.6004687,4.5959375 18.4061979,6.86052083 18.4061979,9.59489583 C18.4061979,12.2683333 17.6067187,14.4959375 16.0072396,16.2782292 C14.4207812,18.0480208 12.4186979,18.9334375 10.0015104,18.9334375 C7.91401042,18.9334375 6.04630208,18.0969792 4.39838542,16.4245833 L4.39838542,28.1251042 Z" id="Fill-4" fill="#30B34A" mask="url(#mask-4)"></path>
                </g>
                <path d="M39.9515625,7.05776042 L44.0713542,7.05776042 L44.0713542,8.65098958 C44.828125,7.85723958 45.4994792,7.31401042 46.0854167,7.02130208 C46.6838542,6.71609375 47.3916667,6.56348958 48.209375,6.56348958 C49.2958333,6.56348958 50.43125,6.91713542 51.615625,7.62546875 L49.7291667,11.3973438 C48.9479167,10.8358854 48.1854167,10.5551562 47.440625,10.5551562 C45.1942708,10.5551562 44.0713542,12.2520312 44.0713542,15.6452604 L44.0713542,24.8921354 L39.9515625,24.8921354 L39.9515625,7.05776042 Z" id="Fill-7" fill="#30B34A"></path>
                <path d="M95.5083333,22.8114583 C95.5083333,22.2583333 95.7098958,21.7807292 96.1125,21.3776042 C96.5161458,20.9744792 96.9984375,20.7729167 97.5604167,20.7729167 C98.1322917,20.7729167 98.6197917,20.9744792 99.0229167,21.3776042 C99.4255208,21.7708333 99.6270833,22.2536458 99.6270833,22.8255208 C99.6270833,23.3973958 99.4255208,23.8848958 99.0229167,24.2875 C98.6291667,24.690625 98.1463542,24.8921875 97.575,24.8921875 C97.003125,24.8921875 96.5161458,24.690625 96.1125,24.2875 C95.7098958,23.8848958 95.5083333,23.3927083 95.5083333,22.8114583" id="Fill-9" fill="#30B34A"></path>
                <polygon id="Fill-11" fill="#30B34A" points="60.5382292 7.71109375 56.695 25.1267188 52.6715625 24.2386979 56.5147917 6.82307292"></polygon>
                <path d="M64.9642708,7.05776042 L69.1022917,7.05776042 L69.1022917,8.70567708 C70.5429167,7.27755208 72.1663542,6.56348958 73.973125,6.56348958 C76.048125,6.56348958 77.6658333,7.21661458 78.8252083,8.52286458 C79.82625,9.63328125 80.3267708,11.4463021 80.3267708,13.9608854 L80.3267708,24.8921354 L76.18875,24.8921354 L76.18875,14.9311979 C76.18875,13.1733854 75.9444792,11.9588021 75.4564583,11.2874479 C74.9798958,10.6041146 74.1132292,10.2619271 72.8559375,10.2619271 C71.48875,10.2619271 70.5184375,10.7140104 69.945,11.6171354 C69.3830208,12.5082812 69.1022917,14.0645313 69.1022917,16.2864063 L69.1022917,24.8921354 L64.9642708,24.8921354 L64.9642708,7.05776042 Z" id="Fill-13" fill="#30B34A"></path>
                <g id="Group-17" transform="translate(83.854167, 0.221771)">
                    <mask id="mask-6" fill="white">
                        <use xlink:href="#path-5"></use>
                    </mask>
                    <g id="Clip-16"></g>
                    <polygon id="Fill-15" fill="#30B34A" mask="url(#mask-6)" points="5.92088542 10.6811979 5.92088542 24.6702604 1.80109375 24.6702604 1.80109375 10.6811979 0.04328125 10.6811979 0.04328125 6.83588542 1.80109375 6.83588542 1.80109375 0.29890625 5.92088542 0.29890625 5.92088542 6.83588542 9.12505208 6.83588542 9.12505208 10.6811979"></polygon>
                </g>
            </g>
        </g>
    </g>
</svg>