<?xml version="1.0" encoding="UTF-8"?>
<svg width="46px" height="40px" viewBox="0 0 46 40" version="1.1" xmlns="http://www.w3.org/2000/svg" xmlns:xlink="http://www.w3.org/1999/xlink">
    <!-- Generator: Sketch 51.1 (57501) - http://www.bohemiancoding.com/sketch -->
    <defs></defs>
    <g id="Designs" stroke="none" stroke-width="1" fill="none" fill-rule="evenodd">
        <g id="Trainer---Upload-video" transform="translate(-498.000000, -320.000000)" fill="#212121">
            <g id="Group-2" transform="translate(220.000000, 187.000000)">
                <g id="Fill-370-+-Fill-371" transform="translate(278.000000, 133.000000)">
                    <path d="M35.705,7.8828 C33.225,3.2048 28.305,0.2168 23.001,0.2168 C15.763,0.2168 9.703,5.6068 8.755,12.6728 C8.557,12.6588 8.359,12.6508 8.163,12.6508 C3.661,12.6508 0.001,16.3188 0.001,20.8268 C0.001,27.7688 6.105,28.8148 8.061,28.9728 L10.001,28.9748 C10.015,21.8188 15.839,16.0008 23.001,16.0008 C30.169,16.0008 36.001,21.8308 36.001,28.9988 L36.455,29.0008 L36.519,28.9908 C36.613,28.9788 46.001,27.6508 46.001,18.4328 C46.001,12.6988 41.405,8.0168 35.705,7.8828" id="Fill-370"></path>
                    <path d="M27,30 L24,30 L24,33 C24,33.55 23.55,34 23,34 C22.448,34 22,33.55 22,33 L22,30 L19,30 C18.448,30 18,29.55 18,29 C18,28.448 18.448,28 19,28 L22,28 L22,25 C22,24.448 22.448,24 23,24 C23.55,24 24,24.448 24,25 L24,28 L27,28 C27.55,28 28,28.448 28,29 C28,29.55 27.55,30 27,30 M23,18 C16.934,18 12,22.934 12,29 C12,35.064 16.934,40 23,40 C29.064,40 34,35.064 34,29 C34,22.934 29.064,18 23,18" id="Fill-371"></path>
                </g>
            </g>
        </g>
    </g>
</svg>