<?xml version="1.0" encoding="UTF-8" standalone="no"?>
<svg width="19px" height="16px" viewBox="0 0 19 16" version="1.1" xmlns="http://www.w3.org/2000/svg" xmlns:xlink="http://www.w3.org/1999/xlink">
    <!-- Generator: Sketch 50.2 (55047) - http://www.bohemiancoding.com/sketch -->
    <title>Stroke 5570 + Stroke 5571 + Stroke 5572</title>
    <desc>Created with Sketch.</desc>
    <defs></defs>
    <g id="Page-1" stroke="none" stroke-width="1" fill="none" fill-rule="evenodd" stroke-linecap="round" stroke-linejoin="round">
        <g id="Video-player-states" transform="translate(-704.000000, -1403.000000)" stroke="#000000" stroke-width="1.6">
            <g id="Group-7" transform="translate(75.000000, 1049.000000)">
                <g id="Group-3" transform="translate(619.000000, 343.000000)">
                    <g id="Stroke-5570-+-Stroke-5571-+-Stroke-5572" transform="translate(11.000000, 12.000000)">
                        <path d="M4.15941667,4.33888889 L2.37652778,4.33888889 C1.28707222,4.33888889 0.404305556,5.22165556 0.404305556,6.31111111 L0.404305556,7.88888889 C0.404305556,8.97834444 1.28707222,9.86111111 2.37652778,9.86111111 L4.15941667,9.86111111 C5.21179444,12.1859667 7.94213889,13.8055556 10.6598611,13.8055556 L10.6598611,0.394444444 C7.94213889,0.394444444 5.21179444,2.01482222 4.15941667,4.33888889 L4.15941667,4.33888889 Z" id="Stroke-5570"></path>
                        <path d="M14.6044633,2.76111111 C16.1033522,3.55552222 16.97113,5.28476667 16.97113,7.1 C16.97113,8.91523333 16.1033522,10.6444778 14.6044633,11.4388889" id="Stroke-5571"></path>
                    </g>
                </g>
            </g>
        </g>
    </g>
</svg>